

<svg width="152" height="48" viewBox="0 0 152 48" fill="none" xmlns="http://www.w3.org/2000/svg">
<path d="M59.688 22.36C60.664 22.568 61.448 23.056 62.04 23.824C62.632 24.576 62.928 25.44 62.928 26.416C62.928 27.824 62.432 28.944 61.44 29.776C60.464 30.592 59.096 31 57.336 31H49.488V14.152H57.072C58.784 14.152 60.12 14.544 61.08 15.328C62.056 16.112 62.544 17.176 62.544 18.52C62.544 19.512 62.28 20.336 61.752 20.992C61.24 21.648 60.552 22.104 59.688 22.36ZM53.592 20.968H56.28C56.952 20.968 57.464 20.824 57.816 20.536C58.184 20.232 58.368 19.792 58.368 19.216C58.368 18.64 58.184 18.2 57.816 17.896C57.464 17.592 56.952 17.44 56.28 17.44H53.592V20.968ZM56.616 27.688C57.304 27.688 57.832 27.536 58.2 27.232C58.584 26.912 58.776 26.456 58.776 25.864C58.776 25.272 58.576 24.808 58.176 24.472C57.792 24.136 57.256 23.968 56.568 23.968H53.592V27.688H56.616ZM78.5323 17.608V31H74.4283V29.176C74.0123 29.768 73.4443 30.248 72.7243 30.616C72.0203 30.968 71.2363 31.144 70.3723 31.144C69.3483 31.144 68.4443 30.92 67.6603 30.472C66.8763 30.008 66.2683 29.344 65.8363 28.48C65.4043 27.616 65.1883 26.6 65.1883 25.432V17.608H69.2683V24.88C69.2683 25.776 69.5003 26.472 69.9643 26.968C70.4283 27.464 71.0523 27.712 71.8363 27.712C72.6363 27.712 73.2683 27.464 73.7323 26.968C74.1963 26.472 74.4283 25.776 74.4283 24.88V17.608H78.5323ZM85.5842 13.24V31H81.4802V13.24H85.5842ZM101.782 17.608V31H97.6783V29.176C97.2623 29.768 96.6943 30.248 95.9743 30.616C95.2703 30.968 94.4863 31.144 93.6223 31.144C92.5983 31.144 91.6943 30.92 90.9103 30.472C90.1263 30.008 89.5183 29.344 89.0863 28.48C88.6543 27.616 88.4383 26.6 88.4383 25.432V17.608H92.5183V24.88C92.5183 25.776 92.7503 26.472 93.2143 26.968C93.6783 27.464 94.3023 27.712 95.0863 27.712C95.8863 27.712 96.5183 27.464 96.9823 26.968C97.4463 26.472 97.6783 25.776 97.6783 24.88V17.608H101.782ZM121.818 17.464C123.482 17.464 124.802 17.968 125.778 18.976C126.77 19.984 127.266 21.384 127.266 23.176V31H123.186V23.728C123.186 22.864 122.954 22.2 122.49 21.736C122.042 21.256 121.418 21.016 120.618 21.016C119.818 21.016 119.186 21.256 118.722 21.736C118.274 22.2 118.05 22.864 118.05 23.728V31H113.97V23.728C113.97 22.864 113.738 22.2 113.274 21.736C112.826 21.256 112.202 21.016 111.402 21.016C110.602 21.016 109.97 21.256 109.506 21.736C109.058 22.2 108.834 22.864 108.834 23.728V31H104.73V17.608H108.834V19.288C109.25 18.728 109.794 18.288 110.466 17.968C111.138 17.632 111.898 17.464 112.746 17.464C113.754 17.464 114.65 17.68 115.434 18.112C116.234 18.544 116.858 19.16 117.306 19.96C117.77 19.224 118.402 18.624 119.202 18.16C120.002 17.696 120.874 17.464 121.818 17.464ZM132.2 16.216C131.48 16.216 130.888 16.008 130.424 15.592C129.976 15.16 129.752 14.632 129.752 14.008C129.752 13.368 129.976 12.84 130.424 12.424C130.888 11.992 131.48 11.776 132.2 11.776C132.904 11.776 133.48 11.992 133.928 12.424C134.392 12.84 134.624 13.368 134.624 14.008C134.624 14.632 134.392 15.16 133.928 15.592C133.48 16.008 132.904 16.216 132.2 16.216ZM134.24 17.608V31H130.136V17.608H134.24ZM145.375 17.464C146.943 17.464 148.191 17.976 149.119 19C150.063 20.008 150.535 21.4 150.535 23.176V31H146.455V23.728C146.455 22.832 146.223 22.136 145.759 21.64C145.295 21.144 144.671 20.896 143.887 20.896C143.103 20.896 142.479 21.144 142.015 21.64C141.551 22.136 141.319 22.832 141.319 23.728V31H137.215V17.608H141.319V19.384C141.735 18.792 142.295 18.328 142.999 17.992C143.703 17.64 144.495 17.464 145.375 17.464Z" fill="black"/>
<path fill-rule="evenodd" clip-rule="evenodd" d="M12.6708 48C22.1688 48 29.8684 39.7146 29.8684 29.494C29.8684 19.2734 22.1688 10.988 12.6708 10.988C10.8778 10.988 9.14902 11.2832 7.52397 11.831C15.6339 13.3207 21.807 20.9208 21.807 30.0723C21.807 38.3636 16.7399 45.3814 9.75616 47.7354C10.7035 47.9094 11.6773 48 12.6708 48Z" fill="#A20000"/>
<path fill-rule="evenodd" clip-rule="evenodd" d="M30.3163 24.319C36.0637 23.5354 41.8234 25.9502 45.566 30.6818C45.3446 29.6755 45.0414 28.6755 44.6531 27.6915C41.5608 19.8568 34.0406 15.504 26.5627 16.5757C28.3637 18.7946 29.6548 21.4536 30.3163 24.319Z" fill="#A20000"/>
<path fill-rule="evenodd" clip-rule="evenodd" d="M16.4111 41.7455C11.4339 42.0158 6.38863 39.9675 2.78359 35.6815C2.11694 34.8889 1.52594 34.0512 1.01012 33.1786C7.08272 37.0215 14.9411 36.5473 20.6158 31.5434C20.568 31.9994 20.5041 32.457 20.4239 32.9152C19.8276 36.319 18.4006 39.3282 16.4111 41.7455Z" fill="#A20000"/>
<ellipse cx="24.7216" cy="6.6506" rx="5.91169" ry="6.6506" fill="#A20000"/>
</svg>
